<svg width="600" height="400" viewBox="0 0 600 400" fill="none" xmlns="http://www.w3.org/2000/svg">
  <!-- Laptop frame -->
  <rect x="100" y="30" width="400" height="250" rx="8" fill="#1A1A1A" stroke="#333333" stroke-width="2"/>
  
  <!-- Screen -->
  <rect x="110" y="40" width="380" height="230" rx="4" fill="#1E1E1E"/>
  
  <!-- App UI elements -->
  <rect x="120" y="60" width="180" height="25" rx="4" fill="#333333"/>
  <rect x="120" y="95" width="360" height="40" rx="4" fill="#2A2A2A"/>
  <rect x="120" y="145" width="170" height="110" rx="4" fill="#2D2D2D"/>
  <rect x="300" y="145" width="170" height="110" rx="4" fill="#2D2D2D"/>
  
  <!-- Accent colors -->
  <rect x="130" y="65" width="15" height="15" rx="2" fill="#d61204"/>
  <rect x="290" y="105" width="60" height="20" rx="2" fill="#d61204"/>
  
  <!-- Chart visualization -->
  <path d="M490 160 L490 245 L310 245" stroke="#333" stroke-width="1"/>
  <path d="M330 230 L350 210 L370 225 L390 190 L410 215 L430 175 L450 205 L470 160" stroke="#d61204" stroke-width="2" fill="none"/>
</svg> 